<?xml version="1.0" encoding="UTF-8"?>
<svg id="b" data-name="Layer 2" xmlns="http://www.w3.org/2000/svg" viewBox="0 0 1000.12 1015.46">
  <g id="c" data-name="Vector">
    <g>
      <path d="M727.16,246.22l.27-.18-6.17-7.29c-6.01-7.32-12.41-14.39-19.19-21.17-48.31-48.31-110.88-77.17-178.22-82.68-.14-.01-.27-.02-.41-.03-2.25-.18-4.5-.33-6.76-.46-.41-.02-.82-.05-1.23-.07-2.05-.11-4.11-.19-6.17-.25-.54-.02-1.07-.04-1.6-.06-2.53-.07-5.07-.1-7.61-.1s-5.08.04-7.61.1c-.54.01-1.07.04-1.6.06-2.06.06-4.12.15-6.17.25-.41.02-.82.05-1.23.07-2.26.13-4.51.28-6.76.46-.14.01-.27.02-.41.03-67.34,5.51-129.91,34.37-178.22,82.68-6.79,6.79-13.19,13.86-19.2,21.18l-6.16,7.27.27.18c-37.99,49.55-58.58,109.87-58.58,173.36s20.59,123.81,58.58,173.36l-.27.18,6.17,7.29c6.01,7.32,12.41,14.39,19.19,21.17,48.31,48.31,110.88,77.17,178.22,82.68.14.01.27.02.41.03,2.25.18,4.5.33,6.76.46.41.02.82.05,1.23.07,2.05.11,4.11.19,6.17.25.54.02,1.07.04,1.6.06,2.53.07,5.07.1,7.61.1s5.08-.04,7.61-.1c.54-.01,1.07-.04,1.6-.06,2.06-.06,4.12-.15,6.17-.25.41-.02.82-.05,1.23-.07,2.26-.13,4.51-.28,6.76-.46.14-.01.27-.02.41-.03,67.34-5.51,129.91-34.37,178.22-82.68,6.79-6.79,13.19-13.86,19.2-21.18l6.16-7.27-.27-.18c37.99-49.55,58.58-109.87,58.58-173.36s-20.59-123.81-58.58-173.36ZM355.42,261.97c-15.73-6.05-30.41-13.11-43.72-21.12,27.26-28.73,60.37-50.54,96.7-64.25-11.81,12.13-22.78,26.7-32.7,43.59-7.61,12.96-14.38,26.95-20.28,41.77ZM398.13,233.35c24.6-41.92,55.78-67.15,88.93-72.4v126.06c-37.74-1.08-74.14-6.82-107-16.65,5.3-13.13,11.33-25.52,18.07-37.01ZM487.06,313.01v93.58h-133.82c1.11-39.66,7.31-77.65,18.06-111.77,35.65,10.8,75.05,17.09,115.76,18.19ZM487.06,432.59v93.58c-40.72,1.11-80.11,7.39-115.76,18.19-10.75-34.12-16.95-72.11-18.06-111.77h133.82ZM487.06,552.16v126.06c-33.15-5.25-64.33-30.48-88.93-72.4-6.74-11.49-12.77-23.88-18.07-37.01,32.86-9.82,69.26-15.57,107-16.65ZM375.7,618.98c9.91,16.89,20.89,31.46,32.7,43.59-36.33-13.71-69.44-35.52-96.7-64.25,13.31-8.01,27.99-15.06,43.72-21.12,5.9,14.82,12.67,28.81,20.28,41.77ZM644.69,577.21c15.73,6.05,30.41,13.11,43.72,21.12-27.26,28.73-60.37,50.54-96.7,64.25,11.81-12.13,22.78-26.7,32.7-43.59,7.61-12.96,14.38-26.95,20.28-41.77ZM601.99,605.82c-24.6,41.92-55.78,67.15-88.93,72.4v-126.06c37.74,1.08,74.14,6.82,107,16.65-5.3,13.13-11.33,25.52-18.07,37.01ZM513.06,526.17v-93.58h133.82c-1.11,39.66-7.31,77.65-18.06,111.77-35.65-10.8-75.05-17.09-115.76-18.19ZM513.06,406.59v-93.58c40.72-1.11,80.11-7.39,115.76-18.19,10.75,34.12,16.95,72.11,18.06,111.77h-133.82ZM513.06,287.01v-126.06c33.15,5.25,64.33,30.48,88.93,72.4,6.74,11.49,12.77,23.88,18.07,37.01-32.86,9.82-69.26,15.57-107,16.65ZM624.41,220.2c-9.91-16.89-20.89-31.46-32.7-43.59,36.33,13.71,69.44,35.52,96.7,64.25-13.31,8.01-27.99,15.06-43.72,21.12-5.9-14.82-12.67-28.81-20.28-41.77ZM346.7,286.43c-11.65,36.8-18.34,77.66-19.47,120.16h-86.53c2.62-53.43,21.34-103.89,53.84-145.77,15.75,9.83,33.29,18.4,52.17,25.61ZM327.23,432.59c1.13,42.5,7.82,83.36,19.47,120.16-18.88,7.21-36.42,15.79-52.17,25.61-32.49-41.88-51.22-92.35-53.84-145.77h86.53ZM653.41,552.75c11.65-36.8,18.34-77.66,19.47-120.16h86.53c-2.62,53.43-21.34,103.89-53.84,145.77-15.75-9.83-33.29-18.4-52.17-25.61ZM672.88,406.59c-1.13-42.5-7.82-83.36-19.47-120.16,18.88-7.21,36.42-15.79,52.17-25.61,32.49,41.88,51.22,92.35,53.84,145.77h-86.53Z"/>
      <path d="M853.38,0H146.73C65.82,0,0,65.82,0,146.73v545.71c0,80.91,65.82,146.73,146.73,146.73h81.66v133.23c0,16.38,9.1,31.12,23.74,38.46,6.15,3.08,12.75,4.6,19.32,4.6,9.08,0,18.09-2.9,25.7-8.59l224.45-167.69h331.78c80.91,0,146.73-65.82,146.73-146.73V146.73C1000.12,65.82,934.29,0,853.38,0ZM974.12,692.44c0,66.57-54.16,120.73-120.73,120.73h-340.42l-231.37,172.86c-5.27,3.94-11.93,4.53-17.81,1.58s-9.39-8.63-9.39-15.21v-159.23h-107.66c-66.57,0-120.73-54.16-120.73-120.73V146.73c0-66.57,54.16-120.73,120.73-120.73h706.65c66.57,0,120.73,54.16,120.73,120.73v545.71Z"/>
    </g>
  </g>
</svg>