<?xml version="1.0" encoding="UTF-8"?>
<svg id="b" data-name="Layer 2" xmlns="http://www.w3.org/2000/svg" xmlns:xlink="http://www.w3.org/1999/xlink" viewBox="0 0 1208.35 1241.63">
  <defs>
    <style>
      .l {
        fill: url(#k);
      }

      .m {
        fill: url(#j);
      }

      .n {
        fill: url(#i);
      }

      .o {
        fill: url(#h);
      }

      .p {
        fill: url(#g);
      }

      .q {
        fill: url(#f);
      }

      .r {
        fill: url(#e);
      }

      .s {
        fill: url(#d);
      }

      .t {
        opacity: .06;
      }
    </style>
    <linearGradient id="d" x1="604.17" y1="79.7" x2="724.27" y2="79.7" gradientUnits="userSpaceOnUse">
      <stop offset="0" stop-color="#3444f0"/>
      <stop offset="1" stop-color="#3041b0"/>
    </linearGradient>
    <linearGradient id="e" x1="484.08" y1="79.7" x2="604.17" y2="79.7" gradientUnits="userSpaceOnUse">
      <stop offset="0" stop-color="#223275"/>
      <stop offset="1" stop-color="#273788"/>
    </linearGradient>
    <linearGradient id="f" x1="604.17" y1="331.96" x2="909.28" y2="331.96" gradientUnits="userSpaceOnUse">
      <stop offset="0" stop-color="#bebebe"/>
      <stop offset="1" stop-color="#e6e6e6"/>
    </linearGradient>
    <linearGradient id="g" x1="299.06" y1="331.96" x2="604.17" y2="331.96" gradientUnits="userSpaceOnUse">
      <stop offset="0" stop-color="#999"/>
      <stop offset="1" stop-color="#adadad"/>
    </linearGradient>
    <linearGradient id="h" x1="0" y1="931.38" x2="604.17" y2="931.38" gradientUnits="userSpaceOnUse">
      <stop offset="0" stop-color="#322362"/>
      <stop offset="1" stop-color="#47298f"/>
    </linearGradient>
    <linearGradient id="i" x1="604.17" y1="931.38" x2="1208.35" y2="931.38" gradientUnits="userSpaceOnUse">
      <stop offset="0" stop-color="#7717da"/>
      <stop offset="1" stop-color="#2c3b9e"/>
    </linearGradient>
    <linearGradient id="j" x1="604.17" y1="600.82" x2="1053.13" y2="600.82" gradientUnits="userSpaceOnUse">
      <stop offset="0" stop-color="#7818db"/>
      <stop offset="1" stop-color="#2c3b9e"/>
    </linearGradient>
    <linearGradient id="k" x1="155.22" y1="600.82" x2="604.17" y2="600.82" gradientUnits="userSpaceOnUse">
      <stop offset="0" stop-color="#342669"/>
      <stop offset="1" stop-color="#472991"/>
    </linearGradient>
  </defs>
  <g id="c" data-name="Vector">
    <g>
      <g class="t">
        <path shape-rendering="geometricPrecision" d="M624.14,196.08l93.99-56.82c7.77-4.7,8.25-15.93.91-21.29l-100.01-73.1c-8.87-6.49-20.85-6.49-29.72,0l-100.01,73.1c-7.34,5.36-6.86,16.59.91,21.29l93.99,56.82c12.3,7.44,27.63,7.44,39.93,0Z"/>
        <path shape-rendering="geometricPrecision" d="M639.76,505.91l261.97-182.33c10.37-7.22,9.99-22.87-.73-29.56l-83.16-51.87c-13.79-8.6-31.35-7.85-44.38,1.89l-149.34,111.72c-11.86,8.88-28.05,8.88-39.91,0l-149.34-111.72c-13.03-9.75-30.59-10.5-44.38-1.89l-83.16,51.87c-10.72,6.68-11.1,22.34-.73,29.56l261.97,182.33c21.44,14.93,49.74,14.93,71.18,0Z"/>
        <path shape-rendering="geometricPrecision" d="M991.34,741.64l-334.84,229.7c-31.61,21.69-73.06,21.69-104.67,0l-334.84-229.7c-26.54-18.21-61.13-18.97-88.42-1.94l-112.6,70.24c-20.8,12.97-21.41,43.41-1.15,57.24l514.96,351.44c44.97,30.69,103.79,30.69,148.77,0l514.96-351.44c20.26-13.83,19.65-44.27-1.15-57.24l-112.6-70.24c-27.29-17.02-61.88-16.26-88.42,1.94Z"/>
        <path shape-rendering="geometricPrecision" d="M1042.48,532.09l-104.72-65.32c-16.21-10.11-36.78-9.59-52.47,1.33l-247.98,172.59c-19.97,13.9-46.31,13.9-66.28,0l-247.98-172.59c-15.69-10.92-36.26-11.44-52.47-1.33l-104.72,65.32c-14,8.73-14.24,29.29-.44,38.35l383.73,252.13c33.47,21.99,76.57,21.99,110.04,0l383.73-252.13c13.79-9.06,13.56-29.62-.44-38.35Z"/>
      </g>
      <g>
        <path shape-rendering="geometricPrecision" class="s" d="M718.13,97.88c7.77-4.63,8.25-15.71.91-20.99L619.03,4.8c-4.44-3.2-9.65-4.8-14.86-4.8v159.41c6.91,0,13.81-1.83,19.97-5.5l93.99-56.03Z"/>
        <path shape-rendering="geometricPrecision" class="r" d="M589.31,4.8l-100.01,72.09c-7.34,5.29-6.86,16.36.91,20.99l93.99,56.03c6.15,3.67,13.06,5.5,19.97,5.5V0c-5.21,0-10.42,1.6-14.86,4.8Z"/>
        <path shape-rendering="geometricPrecision" class="q" d="M901.73,279.63c10.37-7.12,9.99-22.55-.73-29.15l-83.16-51.15c-13.79-8.48-31.35-7.74-44.38,1.87l-149.34,110.17c-5.93,4.38-12.94,6.56-19.96,6.56v152.53c12.43,0,24.87-3.68,35.59-11.04l261.97-179.79Z"/>
        <path shape-rendering="geometricPrecision" class="p" d="M584.22,311.37l-149.34-110.17c-13.03-9.61-30.59-10.35-44.38-1.87l-83.16,51.15c-10.71,6.59-11.1,22.03-.73,29.15l261.97,179.79c10.72,7.36,23.16,11.04,35.59,11.04v-152.53c-7.01,0-14.02-2.19-19.96-6.56Z"/>
        <path shape-rendering="geometricPrecision" class="o" d="M551.84,918.37l-334.84-226.51c-26.54-17.95-61.13-18.7-88.42-1.92l-112.6,69.26c-20.8,12.79-21.41,42.81-1.15,56.44l514.96,346.55c22.49,15.13,48.43,22.7,74.38,22.7v-250.49c-18.26,0-36.53-5.35-52.33-16.04Z"/>
        <path shape-rendering="geometricPrecision" class="n" d="M1192.36,759.21l-112.6-69.26c-27.29-16.79-61.88-16.04-88.42,1.92l-334.84,226.51c-15.81,10.69-34.07,16.04-52.33,16.04v250.49c25.95,0,51.9-7.57,74.38-22.7l514.96-346.55c20.26-13.63,19.65-43.65-1.15-56.44Z"/>
        <path shape-rendering="geometricPrecision" class="m" d="M1042.92,523.05c13.79-8.94,13.56-29.2-.44-37.82l-104.72-64.41c-16.21-9.97-36.78-9.46-52.47,1.31l-247.98,170.19c-9.98,6.85-21.56,10.28-33.14,10.28v185.33c19.14,0,38.28-5.42,55.02-16.27l383.73-248.62Z"/>
        <path shape-rendering="geometricPrecision" class="l" d="M571.03,592.33l-247.98-170.19c-15.69-10.77-36.26-11.29-52.47-1.31l-104.72,64.41c-14,8.61-14.24,28.88-.44,37.82l383.73,248.62c16.74,10.84,35.88,16.27,55.02,16.27v-185.33c-11.58,0-23.16-3.43-33.14-10.28Z"/>
      </g>
    </g>
  </g>
</svg>